<mxfile host="app.diagrams.net" agent="Mozilla/5.0 (Windows NT 10.0; Win64; x64) AppleWebKit/537.36 (KHTML, like Gecko) Chrome/141.0.0.0 Safari/537.36" version="28.2.8">
  <diagram id="-IpCbJ1MpgS_VE26dH6i" name="Use Case - Dat hang">
    <mxGraphModel dx="1226" dy="676" grid="1" gridSize="10" guides="1" tooltips="1" connect="1" arrows="1" fold="1" page="1" pageScale="1" pageWidth="850" pageHeight="1100" math="0" shadow="0">
      <root>
        <mxCell id="0" />
        <mxCell id="1" parent="0" />
        <mxCell id="QALgrfnGxbWJvPpxXDAW-8" value="" style="rounded=0;whiteSpace=wrap;html=1;" vertex="1" parent="1">
          <mxGeometry x="300" y="100" width="360" height="480" as="geometry" />
        </mxCell>
        <mxCell id="QALgrfnGxbWJvPpxXDAW-1" value="Khách hàng" style="shape=umlActor;verticalLabelPosition=bottom;verticalAlign=top;" vertex="1" parent="1">
          <mxGeometry x="150" y="340" width="40" height="60" as="geometry" />
        </mxCell>
        <mxCell id="QALgrfnGxbWJvPpxXDAW-2" value="Đặt hàng" style="ellipse;whiteSpace=wrap;html=1;" vertex="1" parent="1">
          <mxGeometry x="320" y="280" width="120" height="60" as="geometry" />
        </mxCell>
        <mxCell id="QALgrfnGxbWJvPpxXDAW-3" value="Kiểm tra giỏ hàng" style="ellipse;whiteSpace=wrap;html=1;" vertex="1" parent="1">
          <mxGeometry x="460" y="170" width="140" height="60" as="geometry" />
        </mxCell>
        <mxCell id="QALgrfnGxbWJvPpxXDAW-4" value="Tính phí vận chuyển" style="ellipse;whiteSpace=wrap;html=1;" vertex="1" parent="1">
          <mxGeometry x="450" y="430" width="160" height="60" as="geometry" />
        </mxCell>
        <mxCell id="QALgrfnGxbWJvPpxXDAW-5" style="endArrow=classic;html=1;" edge="1" parent="1" source="QALgrfnGxbWJvPpxXDAW-1" target="QALgrfnGxbWJvPpxXDAW-2">
          <mxGeometry relative="1" as="geometry" />
        </mxCell>
        <mxCell id="QALgrfnGxbWJvPpxXDAW-6" value="&amp;lt;&amp;lt;include&amp;gt;&amp;gt;" style="endArrow=open;dashed=1;html=1;fontSize=12;" edge="1" parent="1" source="QALgrfnGxbWJvPpxXDAW-2" target="QALgrfnGxbWJvPpxXDAW-3">
          <mxGeometry relative="1" as="geometry" />
        </mxCell>
        <mxCell id="QALgrfnGxbWJvPpxXDAW-7" value="&amp;lt;&amp;lt;include&amp;gt;&amp;gt;" style="endArrow=open;dashed=1;html=1;fontSize=12;" edge="1" parent="1" source="QALgrfnGxbWJvPpxXDAW-2" target="QALgrfnGxbWJvPpxXDAW-4">
          <mxGeometry relative="1" as="geometry" />
        </mxCell>
      </root>
    </mxGraphModel>
  </diagram>
</mxfile>
